<svg width="34" height="34" viewBox="0 0 34 34" fill="none" xmlns="http://www.w3.org/2000/svg">
<path d="M3.87868 26.1487L1.75736 28.27L6 32.5127L8.12132 30.3913L3.87868 26.1487ZM33.5402 3.72986C33.5402 2.073 32.197 0.729859 30.5402 0.729859H3.54016C1.88331 0.729859 0.540161 2.073 0.540161 3.72986C0.540161 5.38671 1.88331 6.72986 3.54016 6.72986H27.5402V30.7299C27.5402 32.3867 28.8833 33.7299 30.5402 33.7299C32.197 33.7299 33.5402 32.3867 33.5402 30.7299V3.72986ZM6 28.27L8.12132 30.3913L32.6615 5.85118L30.5402 3.72986L28.4188 1.60854L3.87868 26.1487L6 28.27Z" fill="white"/>
</svg>
