<svg width="34" height="34" viewBox="0 0 34 34" fill="none" xmlns="http://www.w3.org/2000/svg">
<path d="M3.87868 26.3987L1.75736 28.52L6 32.7627L8.12132 30.6413L3.87868 26.3987ZM33.5402 3.97986C33.5402 2.32301 32.197 0.97986 30.5402 0.97986L3.54016 0.979858C1.88331 0.979858 0.54016 2.323 0.540161 3.97986C0.540162 5.63671 1.88331 6.97986 3.54016 6.97986H27.5402V30.9799C27.5402 32.6367 28.8833 33.9799 30.5402 33.9799C32.197 33.9799 33.5402 32.6367 33.5402 30.9799L33.5402 3.97986ZM8.12132 30.6413L32.6615 6.10118L28.4188 1.85854L3.87868 26.3987L8.12132 30.6413Z" fill="#F2389E"/>
</svg>
