<svg width="34" height="34" viewBox="0 0 34 34" fill="none" xmlns="http://www.w3.org/2000/svg">
<path d="M3.87868 25.9885L1.75736 28.1099L6 32.3525L8.12132 30.2312L3.87868 25.9885ZM33.5402 3.5697C33.5402 1.91285 32.197 0.569703 30.5402 0.569704L3.54016 0.569702C1.88331 0.569702 0.54016 1.91285 0.540161 3.5697C0.540162 5.22656 1.88331 6.5697 3.54016 6.5697H27.5402V30.5697C27.5402 32.2266 28.8833 33.5697 30.5402 33.5697C32.197 33.5697 33.5402 32.2266 33.5402 30.5697L33.5402 3.5697ZM8.12132 30.2312L32.6615 5.69102L28.4188 1.44838L3.87868 25.9885L8.12132 30.2312Z" fill="#0636CC"/>
</svg>
