<svg width="1152" height="236" viewBox="0 0 1152 236" fill="none" xmlns="http://www.w3.org/2000/svg">
<g clip-path="url(#clip0_508_148)">
<path d="M1067.06 56.9788L1048.05 83.6659H1149.53L1124.33 123.021L1124.27 123.125L1053.06 235.169L995.521 236L1067.06 123.214H1067L1067.04 123.17L1067.06 123.125H991.205V83.6659H991.278V0H1152V56.9788H1067.06Z" fill="white"/>
<path d="M1022.04 152.245L987.952 205.99L985.912 209.209L973.095 229.428L971.839 231.401L969.311 235.392H916.314V209.209H822.899V146.4L918.102 0.296692H965.053L871.876 152.215H876.015L876 152.245H898.618L917.614 121.034L963.457 45.7047L963.501 46.1942L963.457 46.2832V152.215H973.095V152.245H1022.04Z" fill="white"/>
<path d="M628.635 118.141L675.379 236H611.265L585.616 161.072L568.276 217.057L562.407 236H498.056L504.93 218.392L519.639 180.92L526.174 164.246L536.743 137.322L544.386 117.829L498.056 0.296692H562.407L585.616 75.2251L611.161 0.296692H675.379L628.635 118.141Z" fill="white"/>
<path d="M190.406 0.296692L133.358 103.485L75.9702 0.296692H0V235.985H60.0488V85.8465L120.423 189.405H143.972L203.341 85.8465V236H224.688L263.405 139.132V0.296692H190.391H190.406Z" fill="white"/>
<path d="M414.103 0.296692H353.079L297.583 139.117L258.866 235.985H323.217L335.147 202.682H431.03L442.62 235.985H463.952L470.826 218.392L485.535 180.905L414.103 0.296692ZM354.054 148.462L383.591 67.5557L412.107 148.462H354.054Z" fill="white"/>
<path d="M709.38 236V0.296692H769.429V235.985H709.38V236Z" fill="white"/>
</g>
<defs>
<clipPath id="clip0_508_148">
<rect width="1152" height="236" fill="white"/>
</clipPath>
</defs>
</svg>
