<svg width="68" height="69" viewBox="0 0 68 69" fill="none" xmlns="http://www.w3.org/2000/svg">
<path d="M33.6559 68.5313C33.1041 58.4718 32.6213 48.4122 32.0005 37.3538C29.3794 39.7082 27.379 41.4205 25.3787 43.2041C25.2408 43.0614 25.1028 42.99 24.9649 42.8473C26.5513 40.707 28.2068 38.5667 30.2761 35.7842C19.7227 35.1421 9.85908 34.5714 0.0644531 34.0006C0.0644531 33.9293 0.0644531 33.7866 0.0644531 33.7153C9.85908 33.1445 19.6537 32.6451 30.2761 32.003C28.4137 29.5773 26.9652 27.651 25.5857 25.7247C25.7236 25.5107 25.8616 25.368 25.9995 25.1539C27.7239 26.6522 29.3793 28.1504 31.9315 30.4334C32.5522 19.9458 33.1041 10.2429 33.6559 0.46875C33.7938 0.46875 33.8628 0.46875 34.0007 0.46875C34.5526 10.1002 35.1044 19.7317 35.7252 30.148C38.2083 28.1504 40.2776 26.5095 42.2779 24.8685C42.4159 25.0112 42.5539 25.0826 42.7608 25.2253C41.1054 27.2229 39.4499 29.2919 37.1737 32.003C47.934 32.6451 57.7976 33.2159 67.7302 33.7866C67.7302 33.8579 67.7302 33.9293 67.7302 34.0006C57.7976 34.5714 47.934 35.1421 37.1737 35.7842C39.174 38.21 40.6225 39.9936 42.071 41.8485C41.9331 41.9912 41.7261 42.2052 41.5881 42.3479C39.8637 40.921 38.1393 39.4942 35.7252 37.5679C35.1044 48.2695 34.5526 58.3291 33.9318 68.3887C33.8628 68.46 33.7938 68.5313 33.6559 68.5313Z" fill="#F2389E"/>
</svg>
