<svg width="68" height="70" viewBox="0 0 68 70" fill="none" xmlns="http://www.w3.org/2000/svg">
<path d="M33.6559 69.0313C33.1041 58.9718 32.6213 48.9122 32.0005 37.8538C29.3794 40.2082 27.379 41.9205 25.3787 43.7041C25.2408 43.5614 25.1028 43.49 24.9649 43.3473C26.5513 41.207 28.2068 39.0667 30.2761 36.2842C19.7227 35.6421 9.85908 35.0714 0.0644531 34.5006C0.0644531 34.4293 0.0644531 34.2866 0.0644531 34.2153C9.85908 33.6445 19.6537 33.1451 30.2761 32.503C28.4137 30.0773 26.9652 28.151 25.5857 26.2247C25.7236 26.0107 25.8616 25.868 25.9995 25.6539C27.7239 27.1522 29.3793 28.6504 31.9315 30.9334C32.5522 20.4458 33.1041 10.7429 33.6559 0.96875C33.7938 0.96875 33.8628 0.96875 34.0007 0.96875C34.5526 10.6002 35.1044 20.2317 35.7252 30.648C38.2083 28.6504 40.2776 27.0095 42.2779 25.3685C42.4159 25.5112 42.5539 25.5826 42.7608 25.7253C41.1054 27.7229 39.4499 29.7919 37.1737 32.503C47.934 33.1451 57.7976 33.7159 67.7302 34.2866C67.7302 34.3579 67.7302 34.4293 67.7302 34.5006C57.7976 35.0714 47.934 35.6421 37.1737 36.2842C39.174 38.71 40.6225 40.4936 42.071 42.3485C41.9331 42.4912 41.7261 42.7052 41.5881 42.8479C39.8637 41.421 38.1393 39.9942 35.7252 38.0679C35.1044 48.7695 34.5526 58.8291 33.9318 68.8887C33.8628 68.96 33.7938 69.0313 33.6559 69.0313Z" fill="#0636CC"/>
</svg>
